<svg width="256" height="256" viewBox="0 0 256 256" fill="none" xmlns="http://www.w3.org/2000/svg">
<path d="M85.3333 256H149.333V192H170.667V256H234.667V106.667H213.333V234.667H192V170.667H128V234.667H106.667V170.667H85.3333V256ZM21.3333 234.667H64V192H42.6667V213.333H21.3333V234.667ZM0 213.333H21.3333V85.3333H0V213.333ZM42.6667 170.667H85.3333V149.333H42.6667V170.667ZM42.6667 128H64V106.667H42.6667V128ZM21.3333 85.3333H42.6667V64H21.3333V85.3333ZM64 85.3333H85.3333V42.6667H42.6667V64H64V85.3333ZM85.3333 128H128V106.667H106.667V85.3333H85.3333V128ZM149.333 64H128V106.667H213.333V85.3333H149.333V64ZM149.333 64H170.667V21.3333H85.3333V42.6667H149.333V64Z" fill="#9810FA"/>
</svg>
